<svg width="187" height="48" viewBox="0 0 187 48" fill="none" xmlns="http://www.w3.org/2000/svg">
<path d="M74.99 31.04H81.71V35H69.86V13.94H74.99V31.04ZM84.6369 26.6C84.6369 24.88 84.9569 23.37 85.5969 22.07C86.2569 20.77 87.1469 19.77 88.2669 19.07C89.3869 18.37 90.6369 18.02 92.0169 18.02C93.1969 18.02 94.2269 18.26 95.1069 18.74C96.0069 19.22 96.6969 19.85 97.1769 20.63V18.26H102.307V35H97.1769V32.63C96.6769 33.41 95.9769 34.04 95.0769 34.52C94.1969 35 93.1669 35.24 91.9869 35.24C90.6269 35.24 89.3869 34.89 88.2669 34.19C87.1469 33.47 86.2569 32.46 85.5969 31.16C84.9569 29.84 84.6369 28.32 84.6369 26.6ZM97.1769 26.63C97.1769 25.35 96.8169 24.34 96.0969 23.6C95.3969 22.86 94.5369 22.49 93.5169 22.49C92.4969 22.49 91.6269 22.86 90.9069 23.6C90.2069 24.32 89.8569 25.32 89.8569 26.6C89.8569 27.88 90.2069 28.9 90.9069 29.66C91.6269 30.4 92.4969 30.77 93.5169 30.77C94.5369 30.77 95.3969 30.4 96.0969 29.66C96.8169 28.92 97.1769 27.91 97.1769 26.63ZM131.548 18.26L127.018 35H121.348L118.708 24.14L115.978 35H110.338L105.778 18.26H110.908L113.278 30.23L116.098 18.26H121.528L124.378 30.17L126.718 18.26H131.548ZM140.135 12.8V35H135.005V12.8H140.135ZM147.932 16.52C147.032 16.52 146.292 16.26 145.712 15.74C145.152 15.2 144.872 14.54 144.872 13.76C144.872 12.96 145.152 12.3 145.712 11.78C146.292 11.24 147.032 10.97 147.932 10.97C148.812 10.97 149.532 11.24 150.092 11.78C150.672 12.3 150.962 12.96 150.962 13.76C150.962 14.54 150.672 15.2 150.092 15.74C149.532 16.26 148.812 16.52 147.932 16.52ZM150.482 18.26V35H145.352V18.26H150.482ZM171.48 26.36C171.48 26.84 171.45 27.34 171.39 27.86H159.78C159.86 28.9 160.19 29.7 160.77 30.26C161.37 30.8 162.1 31.07 162.96 31.07C164.24 31.07 165.13 30.53 165.63 29.45H171.09C170.81 30.55 170.3 31.54 169.56 32.42C168.84 33.3 167.93 33.99 166.83 34.49C165.73 34.99 164.5 35.24 163.14 35.24C161.5 35.24 160.04 34.89 158.76 34.19C157.48 33.49 156.48 32.49 155.76 31.19C155.04 29.89 154.68 28.37 154.68 26.63C154.68 24.89 155.03 23.37 155.73 22.07C156.45 20.77 157.45 19.77 158.73 19.07C160.01 18.37 161.48 18.02 163.14 18.02C164.76 18.02 166.2 18.36 167.46 19.04C168.72 19.72 169.7 20.69 170.4 21.95C171.12 23.21 171.48 24.68 171.48 26.36ZM166.23 25.01C166.23 24.13 165.93 23.43 165.33 22.91C164.73 22.39 163.98 22.13 163.08 22.13C162.22 22.13 161.49 22.38 160.89 22.88C160.31 23.38 159.95 24.09 159.81 25.01H166.23ZM185.016 30.65V35H182.406C180.546 35 179.096 34.55 178.056 33.65C177.016 32.73 176.496 31.24 176.496 29.18V22.52H174.456V18.26H176.496V14.18H181.626V18.26H184.986V22.52H181.626V29.24C181.626 29.74 181.746 30.1 181.986 30.32C182.226 30.54 182.626 30.65 183.186 30.65H185.016Z" fill="#2D2F30"/>
<circle cx="23.9156" cy="23.9156" r="23.9156" fill="#094B72"/>
<path d="M22.906 28.9287H29.626V32.8887H17.776V11.8287H22.906V28.9287Z" fill="white"/>
</svg>
